<mxfile host="65bd71144e">
    <diagram id="y7LyX2alFGtX07KHJ8K6" name="Page-1">
        <mxGraphModel dx="979" dy="487" grid="1" gridSize="10" guides="1" tooltips="1" connect="1" arrows="1" fold="1" page="1" pageScale="1" pageWidth="850" pageHeight="1100" math="0" shadow="0">
            <root>
                <mxCell id="0"/>
                <mxCell id="1" parent="0"/>
                <mxCell id="4" style="edgeStyle=none;html=1;" parent="1" source="2" target="67" edge="1">
                    <mxGeometry relative="1" as="geometry">
                        <mxPoint x="116.88499999999993" y="80" as="targetPoint"/>
                    </mxGeometry>
                </mxCell>
                <mxCell id="2" value="start" style="ellipse;whiteSpace=wrap;html=1;fillColor=#b0e3e6;strokeColor=#0e8088;fontColor=#050505;" parent="1" vertex="1">
                    <mxGeometry x="230" y="30" width="40" height="40" as="geometry"/>
                </mxCell>
                <mxCell id="5" value="" style="ellipse;whiteSpace=wrap;html=1;fillColor=#ffcc99;strokeColor=#36393d;fontColor=#000000;" parent="1" vertex="1">
                    <mxGeometry x="328.44" y="700" width="40" height="40" as="geometry"/>
                </mxCell>
                <mxCell id="59" style="edgeStyle=none;html=1;entryX=0.5;entryY=0;entryDx=0;entryDy=0;" parent="1" source="56" target="70" edge="1">
                    <mxGeometry relative="1" as="geometry">
                        <mxPoint x="348.8011111111111" y="557" as="targetPoint"/>
                    </mxGeometry>
                </mxCell>
                <mxCell id="56" value="" style="ellipse;whiteSpace=wrap;html=1;fillColor=#CDEB8B;strokeColor=#0e8088;fontColor=#050505;" parent="1" vertex="1">
                    <mxGeometry x="328.44" y="580" width="40" height="40" as="geometry"/>
                </mxCell>
                <mxCell id="62" style="edgeStyle=none;html=1;entryX=0.5;entryY=0;entryDx=0;entryDy=0;" parent="1" source="60" target="56" edge="1">
                    <mxGeometry relative="1" as="geometry">
                        <mxPoint x="628.9485" y="504" as="targetPoint"/>
                        <Array as="points"/>
                    </mxGeometry>
                </mxCell>
                <mxCell id="60" value="mongo«&quot;index&quot;;&quot;dbnotes&quot;;&quot;collection_document&quot;;&quot;mongo.document.indexes&quot;»&#10;mongo«&quot;index&quot;;&quot;dbnotes&quot;;&quot;collection_segment&quot;;&quot;mongo.segment.indexes&quot;»&#10;mongo«&quot;index&quot;;&quot;dbtemp&quot;;&quot;collection_plates&quot;;&quot;mongo.plates.indexes&quot;»" style="rounded=1;whiteSpace=wrap;fillColor=#eeeeee;strokeColor=#36393d;fontColor=#000000;" parent="1" vertex="1">
                    <mxGeometry x="105.32" y="480" width="486.25" height="70" as="geometry"/>
                </mxCell>
                <mxCell id="104" style="edgeStyle=none;html=1;entryX=1;entryY=0.5;entryDx=0;entryDy=0;" parent="1" source="63" target="83" edge="1">
                    <mxGeometry relative="1" as="geometry">
                        <Array as="points">
                            <mxPoint x="580.44" y="430"/>
                        </Array>
                    </mxGeometry>
                </mxCell>
                <mxCell id="63" value="mongo«&quot;delete&quot;;&quot;dbnotes&quot;;&quot;select * from collection_document&quot;»&#10;mongo«&quot;delete&quot;;&quot;dbnotes&quot;;&quot;select * from collection_segment&quot;»&#10;mongo«&quot;delete&quot;;&quot;dbtemp&quot;;&quot;select * from collection_plates&quot;»" style="rounded=1;whiteSpace=wrap;fillColor=#eeeeee;strokeColor=#36393d;fontColor=#000000;" parent="1" vertex="1">
                    <mxGeometry x="358.44" y="330" width="443.63" height="70" as="geometry"/>
                </mxCell>
                <mxCell id="68" style="edgeStyle=none;html=1;entryX=0.5;entryY=0;entryDx=0;entryDy=0;" parent="1" source="67" target="63" edge="1">
                    <mxGeometry relative="1" as="geometry">
                        <Array as="points">
                            <mxPoint x="580.44" y="190"/>
                        </Array>
                        <mxPoint x="248.94015617679582" y="260.00624707183306" as="targetPoint"/>
                    </mxGeometry>
                </mxCell>
                <mxCell id="72" value="isTrue«${args.reset}==true»" style="edgeLabel;align=center;verticalAlign=middle;resizable=0;points=[];" parent="68" vertex="1" connectable="0">
                    <mxGeometry x="-0.2085" relative="1" as="geometry">
                        <mxPoint x="12" y="-10" as="offset"/>
                    </mxGeometry>
                </mxCell>
                <mxCell id="85" style="edgeStyle=none;html=1;entryX=0;entryY=0.5;entryDx=0;entryDy=0;" parent="1" source="67" target="83" edge="1">
                    <mxGeometry relative="1" as="geometry">
                        <mxPoint x="61.30999999999989" y="335" as="targetPoint"/>
                        <Array as="points">
                            <mxPoint x="248.44" y="430"/>
                        </Array>
                    </mxGeometry>
                </mxCell>
                <mxCell id="86" value="isTrue«${args.reset}!=true»" style="edgeLabel;align=center;verticalAlign=middle;resizable=0;points=[];" parent="85" vertex="1" connectable="0">
                    <mxGeometry x="-0.3133" y="1" relative="1" as="geometry">
                        <mxPoint x="-12" y="-20" as="offset"/>
                    </mxGeometry>
                </mxCell>
                <mxCell id="67" value="set«&quot;metadata.videoMeta.document_id&quot;;&quot;${scope.room}&quot;»&#10;set«&quot;metadata.videoMeta.process_time&quot;;${scope.start}»&#10;set«&quot;state.processors.audioFeature.1.db&quot;;&quot;temp_${scope.room}&quot;»" style="rounded=1;whiteSpace=wrap;fillColor=#cce5ff;strokeColor=#36393d;fontColor=#000000;" parent="1" vertex="1">
                    <mxGeometry x="31.560000000000002" y="160" width="436.88" height="60" as="geometry"/>
                </mxCell>
                <mxCell id="71" style="edgeStyle=none;html=1;" parent="1" source="70" target="5" edge="1">
                    <mxGeometry relative="1" as="geometry"/>
                </mxCell>
                <mxCell id="70" value="set«&quot;scope.config_mongo&quot;;true»" style="rounded=1;whiteSpace=wrap;fillColor=#cce5ff;strokeColor=#36393d;fontColor=#000000;" parent="1" vertex="1">
                    <mxGeometry x="232.37" y="640" width="232.13" height="40" as="geometry"/>
                </mxCell>
                <mxCell id="90" style="edgeStyle=none;html=1;entryX=0.5;entryY=0;entryDx=0;entryDy=0;fontColor=#050505;" parent="1" source="83" target="60" edge="1">
                    <mxGeometry relative="1" as="geometry">
                        <Array as="points"/>
                    </mxGeometry>
                </mxCell>
                <mxCell id="83" value="" style="ellipse;whiteSpace=wrap;html=1;fillColor=#eeeeee;strokeColor=#36393d;" parent="1" vertex="1">
                    <mxGeometry x="328.44" y="410" width="40" height="40" as="geometry"/>
                </mxCell>
                <mxCell id="88" value="2.2. Alternativelly erase &amp; create:&#10;- Mongo tables" style="rounded=0;whiteSpace=wrap;fillColor=#ffff88;strokeColor=#36393d;fontColor=#050505;align=center;verticalAlign=middle;spacingLeft=6;" parent="1" vertex="1">
                    <mxGeometry x="338.44" y="250" width="227.87" height="60" as="geometry"/>
                </mxCell>
                <mxCell id="91" value="1.1. Initialize fixed variables" style="rounded=0;whiteSpace=wrap;fillColor=#ffff88;strokeColor=#36393d;fontColor=#050505;align=center;verticalAlign=middle;spacingLeft=6;" parent="1" vertex="1">
                    <mxGeometry x="30" y="120" width="200" height="30" as="geometry"/>
                </mxCell>
                <mxCell id="96" value="3.2. Assure Mongo&#10;Collection and Indexes" style="rounded=0;whiteSpace=wrap;fillColor=#ffff88;strokeColor=#36393d;fontColor=#050505;align=center;verticalAlign=middle;spacingLeft=6;" parent="1" vertex="1">
                    <mxGeometry x="608.44" y="470" width="170" height="60" as="geometry"/>
                </mxCell>
            </root>
        </mxGraphModel>
    </diagram>
</mxfile>